#!OML:ASF H:\Punching\Project 1\Capture day 1\Session 1\female.ASF
:FULLY-SPECIFIED
:DEGREES
2821
root -2.18887 15.6846 1.40749 10.125 157.909 0.0548712
lowerback -6.20897 -0.744384 3.26744
upperback -6.42522 -0.57669 1.67625
thorax -3.19193 -0.165076 -0.129472
lowerneck -13.415 0.159703 10.0815
upperneck 39.4474 2.26971 -3.03711
head 16.6081 3.39302 -2.35402
rclavicle -2.02263e-014 1.90833e-014
rhumerus -39.8621 -12.771 -65.8423
rradius 23.7575
rwrist 15.8494
rhand -11.5938 -3.38345
rfingers 7.12502
rthumb 14.4484 -32.8605
lclavicle -2.02263e-014 1.90833e-014
lhumerus -46.7662 9.52892 74.15
lradius 34.4904
lwrist -19.6634
lhand -1.59084 12.3822
lfingers 7.12502
lthumb 24.0658 40.8932
rfemur -25.6705 -3.99313 32.2469
rtibia 27.7724
rfoot -13.9638 -23.6232
rtoes 19.3946
lfemur -17.3166 4.97841 -21.4866
ltibia 60.7684
lfoot 6.72754 -3.65404
ltoes -6.25906
2822
root -2.16346 15.6853 1.3415 10.1008 156.889 0.137592
lowerback -6.14667 -0.63785 3.38137
upperback -6.39914 -0.44467 1.66644
thorax -3.19776 -0.107073 -0.198585
lowerneck -13.3735 0.198242 10.1575
upperneck 39.414 2.25144 -2.97873
head 16.5807 3.39222 -2.34782
rclavicle -5.31749e-015 -3.18055e-015
rhumerus -39.4965 -12.3546 -66.3488
rradius 24.0354
rwrist 15.4005
rhand -11.719 -3.41209
rfingers 7.12502
rthumb 14.3278 -32.8977
lclavicle -5.31749e-015 -3.18055e-015
lhumerus -46.7021 9.65633 73.9545
lradius 34.508
lwrist -19.5339
lhand -1.98237 12.4539
lfingers 7.12502
lthumb 23.6903 41.014
rfemur -25.122 -3.50336 32.2665
rtibia 27.4816
rfoot -13.9406 -23.2459
rtoes 19.1002
lfemur -18.5062 5.12654 -21.3085
ltibia 62.3014
lfoot 6.15422 -3.67265
ltoes -6.54634
2823
root -2.13904 15.6852 1.27615 10.0631 155.833 0.190877
lowerback -6.08735 -0.530567 3.46403
upperback -6.36512 -0.312451 1.6483
thorax -3.19258 -0.0483161 -0.259017
lowerneck -13.337 0.240115 10.2355
upperneck 39.38 2.23722 -2.92398
head 16.5549 3.39224 -2.34304
rclavicle -2.01269e-014 1.98785e-014
rhumerus -39.1001 -11.9277 -66.8868
rradius 24.323
rwrist 14.8937
rhand -11.8631 -3.47277
rfingers 7.12502
rthumb 14.1889 -32.9682
lclavicle -2.01269e-014 1.98785e-014
lhumerus -46.6523 9.78091 73.7648
lradius 34.5562
lwrist -19.2862
lhand -2.42813 12.5676
lfingers 7.12502
lthumb 23.2627 41.1824
rfemur -24.6056 -3.00086 32.2485
rtibia 27.2606
rfoot -13.9569 -22.8603
rtoes 18.8197
lfemur -19.6438 5.20651 -21.1712
ltibia 63.6329
lfoot 5.25462 -3.47777
ltoes -6.58135
2824
root -2.1157 15.685 1.21134 10.0237 154.748 0.230072
lowerback -6.03668 -0.426828 3.53238
upperback -6.32394 -0.186002 1.62704
thorax -3.1746 0.00793731 -0.315006
lowerneck -13.3086 0.289612 10.3162
upperneck 39.3471 2.23316 -2.87353
head 16.533 3.39553 -2.33903
rclavicle -4.57205e-015 7.95139e-015
rhumerus -38.666 -11.4802 -67.4642
rradius 24.6162
rwrist 14.3359
rhand -12.0263 -3.56983
rfingers 7.12502
rthumb 14.0317 -33.0762
lclavicle -4.57205e-015 7.95139e-015
lhumerus -46.6163 9.90804 73.5776
lradius 34.6268
lwrist -18.9372
lhand -2.92237 12.7084
lfingers 7.12502
lthumb 22.7885 41.3824
rfemur -24.1219 -2.50853 32.2114
rtibia 27.0952
rfoot -14.0108 -22.4462
rtoes 18.5691
lfemur -20.7462 5.20165 -21.0514
ltibia 64.7627
lfoot 4.21379 -3.09899
ltoes -6.32824
2825
root -2.09357 15.6846 1.14708 9.98528 153.636 0.25298
lowerback -5.9962 -0.324495 3.59027
upperback -6.28159 -0.0618574 1.59974
thorax -3.1493 0.0633963 -0.371532
lowerneck -13.2758 0.341303 10.3943
upperneck 39.3151 2.23432 -2.82322
head 16.5109 3.40059 -2.33377
rclavicle -9.89451e-014 3.97569e-015
rhumerus -38.2096 -11.0133 -68.0744
rradius 24.9153
rwrist 13.7455
rhand -12.1836 -3.63348
rfingers 7.12502
rthumb 13.8801 -33.1503
lclavicle -9.89451e-014 3.97569e-015
lhumerus -46.6056 10.0235 73.3952
lradius 34.7231
lwrist -18.5104
lhand -3.44048 12.8698
lfingers 7.12502
lthumb 22.2912 41.6041
rfemur -23.6737 -2.03712 32.1537
rtibia 26.9784
rfoot -14.0981 -21.9929
rtoes 18.3469
lfemur -21.8157 5.0978 -20.9445
ltibia 65.6922
lfoot 3.05712 -2.52491
ltoes -6.28094
2826
root -2.07278 15.684 1.08339 9.95319 152.496 0.265641
lowerback -5.96387 -0.225825 3.64264
upperback -6.24244 0.0577116 1.57053
thorax -3.12257 0.116963 -0.427104
lowerneck -13.2324 0.397019 10.4676
upperneck 39.2845 2.24609 -2.77372
head 16.488 3.40947 -2.3262
rclavicle -2.37051e-014 -1.35174e-014
rhumerus -37.7344 -10.511 -68.7209
rradius 25.2206
rwrist 13.1283
rhand -12.3463 -3.70291
rfingers 7.12502
rthumb 13.7233 -33.2304
lclavicle -2.37051e-014 -1.35174e-014
lhumerus -46.624 10.1288 73.2162
lradius 34.8418
lwrist -18.0227
lhand -3.96499 13.0429
lfingers 7.12502
lthumb 21.7876 41.8365
rfemur -23.2663 -1.59227 32.0823
rtibia 26.9068
rfoot -14.2047 -21.5006
rtoes 18.1195
lfemur -22.8562 4.88921 -20.8377
ltibia 66.4265
lfoot 1.88823 -1.84378
ltoes -6.42491
2827
root -2.05344 15.683 1.02021 9.92791 151.334 0.272208
lowerback -5.93602 -0.130147 3.69677
upperback -6.20679 0.173514 1.53872
thorax -3.09686 0.168697 -0.486455
lowerneck -13.1823 0.45572 10.5346
upperneck 39.2578 2.26613 -2.72271
head 16.4662 3.42151 -2.31543
rclavicle -3.25013e-014 2.22639e-014
rhumerus -37.2445 -9.98698 -69.3924
rradius 25.5256
rwrist 12.524
rhand -12.5043 -3.73924
rfingers 7.12502
rthumb 13.571 -33.2769
lclavicle -3.25013e-014 2.22639e-014
lhumerus -46.6693 10.2211 73.0381
lradius 34.9791
lwrist -17.5032
lhand -4.47663 13.2145
lfingers 7.12502
lthumb 21.2962 42.0644
rfemur -22.8983 -1.17136 31.9991
rtibia 26.8789
rfoot -14.3323 -20.9752
rtoes 17.8698
lfemur -23.8601 4.57032 -20.7198
ltibia 66.9721
lfoot 0.724391 -1.14409
ltoes -6.70071
2828
root -2.03559 15.6817 0.95747 9.9119 150.152 0.276114
lowerback -5.90909 -0.0402625 3.7527
upperback -6.17843 0.282658 1.50876
thorax -3.07824 0.217313 -0.545114
lowerneck -13.1294 0.518086 10.5999
upperneck 39.2423 2.29809 -2.67853
head 16.4509 3.4384 -2.30525
rclavicle -8.36386e-014 9.54166e-015
rhumerus -36.745 -9.42977 -70.0866
rradius 25.8297
rwrist 11.9371
rhand -12.6541 -3.76876
rfingers 7.12502
rthumb 13.4267 -33.316
lclavicle -8.36386e-014 9.54166e-015
lhumerus -46.7397 10.3028 72.8609
lradius 35.1229
lwrist -16.9795
lhand -4.96171 13.3698
lfingers 7.12502
lthumb 20.8302 42.2716
rfemur -22.5667 -0.77002 31.9064
rtibia 26.8845
rfoot -14.4821 -20.425
rtoes 17.5689
lfemur -24.8271 4.14041 -20.5798
ltibia 67.3359
lfoot -0.42123 -0.488919
ltoes -6.97657
2829
root -2.01905 15.6801 0.894992 9.90411 148.949 0.281972
lowerback -5.88079 0.0474368 3.81681
upperback -6.15828 0.389939 1.47954
thorax -3.06882 0.264911 -0.607667
lowerneck -13.0567 0.581156 10.659
upperneck 39.2271 2.33871 -2.63656
head 16.4315 3.45837 -2.29349
rclavicle -8.00108e-015 7.95139e-016
rhumerus -36.2478 -8.83893 -70.7999
rradius 26.1339
rwrist 11.3686
rhand -12.7959 -3.78874
rfingers 7.12502
rthumb 13.29 -33.345
lclavicle -8.00108e-015 7.95139e-016
lhumerus -46.8307 10.3658 72.6853
lradius 35.2635
lwrist -16.4743
lhand -5.40367 13.5067
lfingers 7.12502
lthumb 20.4055 42.4546
rfemur -22.2621 -0.371648 31.8066
rtibia 26.9122
rfoot -14.6568 -19.8654
rtoes 17.1828
lfemur -25.7487 3.5995 -20.4073
ltibia 67.5232
lfoot -1.53881 0.082286
ltoes -7.23952
2830
root -2.00359 15.6788 0.832442 9.90126 147.732 0.288954
lowerback -5.85094 0.129678 3.88821
upperback -6.14223 0.490398 1.45079
thorax -3.06454 0.308916 -0.67406
lowerneck -12.974 0.649366 10.7218
upperneck 39.2123 2.39183 -2.60374
head 16.4113 3.48301 -2.28437
rclavicle -2.13197e-014 3.81667e-014
rhumerus -35.7485 -8.21113 -71.5353
rradius 26.4361
rwrist 10.8223
rhand -12.9243 -3.78214
rfingers 7.12502
rthumb 13.1662 -33.3464
lclavicle -2.13197e-014 3.81667e-014
lhumerus -46.931 10.4143 72.51
lradius 35.3864
lwrist -16.0189
lhand -5.8199 13.6103
lfingers 7.12502
lthumb 20.0055 42.6005
rfemur -21.9716 0.0257475 31.6977
rtibia 26.9475
rfoot -14.8634 -19.2996
rtoes 16.6913
lfemur -26.6175 2.94154 -20.1955
ltibia 67.5362
lfoot -2.6018 0.547143
ltoes -7.41214
2831
root -1.98901 15.6777 0.76977 9.90389 146.497 0.301472
lowerback -5.81571 0.20872 3.9658
upperback -6.12937 0.587279 1.4261
thorax -3.06648 0.351027 -0.739932
lowerneck -12.8857 0.722183 10.7864
upperneck 39.1958 2.45638 -2.58219
head 16.39 3.51087 -2.27874
rclavicle -3.67752e-014 -1.43125e-014
rhumerus -35.2505 -7.54029 -72.2885
rradius 26.7377
rwrist 10.2943
rhand -13.0423 -3.763
rfingers 7.12502
rthumb 13.0524 -33.3346
lclavicle -3.67752e-014 -1.43125e-014
lhumerus -47.0382 10.4447 72.341
lradius 35.4918
lwrist -15.629
lhand -6.18811 13.6933
lfingers 7.12502
lthumb 19.6515 42.72
rfemur -21.6883 0.436784 31.5831
rtibia 26.9818
rfoot -15.0958 -18.7355
rtoes 16.0772
lfemur -27.4297 2.17902 -19.9328
ltibia 67.3803
lfoot -3.59425 0.889941
ltoes -7.5432
2832
root -1.97517 15.677 0.706745 9.91323 145.237 0.322184
lowerback -5.77558 0.282657 4.05016
upperback -6.11743 0.677721 1.40661
thorax -3.07214 0.389769 -0.804523
lowerneck -12.7907 0.804575 10.855
upperneck 39.1732 2.53826 -2.57218
head 16.3658 3.5441 -2.27621
rclavicle -3.91109e-014 -8.74653e-015
rhumerus -34.7504 -6.81694 -73.0649
rradius 27.038
rwrist 9.78839
rhand -13.1425 -3.72939
rfingers 7.12502
rthumb 12.9558 -33.3072
lclavicle -3.91109e-014 -8.74653e-015
lhumerus -47.1518 10.4666 72.1712
lradius 35.5747
lwrist -15.3148
lhand -6.46407 13.7555
lfingers 7.12502
lthumb 19.3862 42.8092
rfemur -21.4092 0.866618 31.4646
rtibia 27.0132
rfoot -15.3537 -18.1706
rtoes 15.3551
lfemur -28.1804 1.32476 -19.6109
ltibia 67.0607
lfoot -4.50591 1.108
ltoes -7.60269
2833
root -1.96189 15.6761 0.643329 9.92675 143.951 0.345016
lowerback -5.73645 0.35475 4.13737
upperback -6.10167 0.765121 1.38746
thorax -3.07306 0.426866 -0.870457
lowerneck -12.7058 0.894923 10.9306
upperneck 39.151 2.63107 -2.57232
head 16.3459 3.58074 -2.27768
rclavicle -2.16675e-014 -2.38542e-014
rhumerus -34.251 -6.03568 -73.8692
rradius 27.3442
rwrist 9.28894
rhand -13.2276 -3.70062
rfingers 7.12502
rthumb 12.8738 -33.2836
lclavicle -2.16675e-014 -2.38542e-014
lhumerus -47.254 10.4768 72.0003
lradius 35.6191
lwrist -15.0842
lhand -6.64951 13.789
lfingers 7.12502
lthumb 19.2079 42.8605
rfemur -21.1372 1.32324 31.3363
rtibia 27.0459
rfoot -15.6294 -17.6119
rtoes 14.5452
lfemur -28.866 0.401366 -19.2329
ltibia 66.5868
lfoot -5.34869 1.21317
ltoes -7.65239
2834
root -1.94898 15.6752 0.579403 9.94173 142.635 0.363291
lowerback -5.70094 0.425695 4.22053
upperback -6.08242 0.850497 1.36774
thorax -3.06809 0.463108 -0.934751
lowerneck -12.6322 0.99241 11.0116
upperneck 39.1315 2.73423 -2.58264
head 16.3317 3.62057 -2.28293
rclavicle -6.26172e-014 -7.95139e-016
rhumerus -33.7566 -5.18532 -74.7021
rradius 27.6611
rwrist 8.79019
rhand -13.2934 -3.67614
rfingers 7.12502
rthumb 12.8104 -33.2631
lclavicle -6.26172e-014 -7.95139e-016
lhumerus -47.3508 10.4845 71.8219
lradius 35.6339
lwrist -14.942
lhand -6.72537 13.7911
lfingers 7.12502
lthumb 19.1349 42.8698
rfemur -20.8766 1.81042 31.192
rtibia 27.0878
rfoot -15.915 -17.0614
rtoes 13.6707
lfemur -29.4868 -0.564113 -18.8049
ltibia 65.9684
lfoot -6.12038 1.22018
ltoes -7.71888
